<svg height="496pt" viewBox="0 0 496 496" width="496pt" xmlns="http://www.w3.org/2000/svg"><path d="m479.753906 385.398438c-1.226562-17.140626-9.296875-33.375-22.746094-45.078126-2.601562-2.265624-5.566406-5.113281-7.871093-9.046874-2.96875-5.074219-4.207031-12.152344-5.511719-19.640626-1.882812-10.761718-3.824219-21.878906-11.351562-30.152343-7.609376-8.359375-18.5625-11.34375-29.152344-14.242188-7.28125-1.992187-14.152344-3.863281-18.824219-7.230469-4.679687-3.367187-8.632813-9.296874-12.824219-15.566406-6.097656-9.136718-12.394531-18.578125-22.730468-23.160156-10.222657-4.519531-21.382813-2.839844-32.191407-1.234375-7.519531 1.128906-14.613281 2.191406-20.375.984375-5.503906-1.167969-11.457031-4.941406-17.742187-8.953125-8.890625-5.664063-18.960938-12.078125-30.433594-12.078125-11.480469 0-21.542969 6.414062-30.449219 12.070312-6.277343 4-12.222656 7.785157-17.726562 8.945313-5.753907 1.222656-12.839844.152344-20.382813-.984375-10.785156-1.625-21.953125-3.296875-32.183594 1.234375-10.347656 4.574219-16.640624 14.023437-22.738281 23.160156-4.175781 6.269531-8.136719 12.199219-12.816406 15.566407-4.671875 3.367187-11.542969 5.246093-18.832031 7.230468-10.582032 2.890625-21.535156 5.882813-29.152344 14.242188-7.527344 8.269531-9.472656 19.390625-11.351562 30.152344-1.304688 7.496093-2.542969 14.566406-5.511719 19.640624-2.910157 4.972657-7.566407 9.605469-11.6875 13.6875-10.816407 10.75-17.488281 25.238282-18.816407 40.414063-9.472656 3.214844-16.351562 12.097656-16.351562 22.640625 0 13.230469 10.769531 24 24 24h10.03125c12.273438 37.96875 47.542969 64 87.9375 64h252.0625c40.394531 0 75.664062-26.03125 87.9375-64h10.03125c13.230469 0 24-10.769531 24-24 0-10.503906-6.832031-19.359375-16.246094-22.601562zm-433.296875-29.101563c4.816407-4.769531 10.253907-10.175781 14.222657-16.953125 4.425781-7.558594 5.96875-16.414062 7.472656-24.976562 1.550781-8.894532 3.015625-17.304688 7.414062-22.136719 4.480469-4.917969 12.769532-7.175781 21.539063-9.574219 8.328125-2.273438 16.941406-4.625 23.964843-9.6875 7.027344-5.066406 11.976563-12.496094 16.769532-19.671875 5.046875-7.5625 9.816406-14.703125 15.886718-17.402344 5.992188-2.65625 14.425782-1.375 23.351563-.039062 8.59375 1.289062 17.472656 2.625 26.058594.816406 8.34375-1.761719 15.808593-6.511719 23.015625-11.105469 7.726562-4.917968 15.03125-9.566406 21.847656-9.566406s14.121094 4.648438 21.847656 9.566406c7.207032 4.59375 14.679688 9.34375 23.03125 11.105469 8.5625 1.816406 17.457032.480469 26.050782-.816406 8.925781-1.335938 17.367187-2.597657 23.34375.039062 6.085937 2.691407 10.847656 9.832031 15.894531 17.402344 4.792969 7.183594 9.742187 14.605469 16.769531 19.664063 7.023438 5.0625 15.628906 7.414062 23.957031 9.6875 8.777344 2.390624 17.058594 4.65625 21.539063 9.574218 4.398437 4.832032 5.855468 13.242188 7.414062 22.136719 1.503906 8.5625 3.046875 17.410156 7.472656 24.976563 3.503907 5.96875 7.816407 10.105468 11.175782 13.03125 9.574218 8.34375 15.601562 19.632812 17.105468 31.632812h-430.960937c1.519531-10.425781 6.328125-20.265625 13.816406-27.703125zm327.574219 123.703125h-252.0625c-31.625 0-59.433594-19.304688-70.929688-48h393.921876c-11.496094 28.695312-39.304688 48-70.929688 48zm97.96875-64h-448c-4.414062 0-8-3.59375-8-8s3.585938-8 8-8h448c4.414062 0 8 3.59375 8 8s-3.585938 8-8 8zm0 0"/><path d="m96 352h16v16h-16zm0 0"/><path d="m120 312h16v16h-16zm0 0"/><path d="m160 280h16v16h-16zm0 0"/><path d="m184 320h16v16h-16zm0 0"/><path d="m224 352h16v16h-16zm0 0"/><path d="m248 256h16v16h-16zm0 0"/><path d="m216 288h16v16h-16zm0 0"/><path d="m272 320h16v16h-16zm0 0"/><path d="m304 280h16v16h-16zm0 0"/><path d="m184 248h16v16h-16zm0 0"/><path d="m312 352h16v16h-16zm0 0"/><path d="m344 320h16v16h-16zm0 0"/><path d="m408 352h16v16h-16zm0 0"/><path d="m360 288h16v16h-16zm0 0"/><path d="m288 248h16v16h-16zm0 0"/><path d="m258.464844 147.550781c-8.234375 7.890625-18.464844 17.695313-18.464844 36.449219h16c0-11.921875 5.976562-17.648438 13.527344-24.894531 8.242187-7.890625 18.472656-17.707031 18.472656-36.449219 0-18.746094-10.230469-28.558594-18.464844-36.449219-7.558594-7.246093-13.535156-12.976562-13.535156-24.902343 0-11.914063 5.96875-17.632813 13.527344-24.871094 8.234375-7.882813 18.472656-17.691406 18.472656-36.433594h-16c0 11.910156-5.96875 17.632812-13.527344 24.871094-8.234375 7.882812-18.472656 17.6875-18.472656 36.433594 0 18.75 10.230469 28.566406 18.472656 36.457031 7.550782 7.238281 13.527344 12.964843 13.527344 24.894531 0 11.917969-5.976562 17.648438-13.535156 24.894531zm0 0"/><path d="m170.464844 102.207031c-8.234375 7.882813-18.464844 17.695313-18.464844 36.449219 0 18.75 10.230469 28.566406 18.472656 36.457031 7.550782 7.238281 13.527344 12.964844 13.527344 24.886719h16c0-18.753906-10.230469-28.558594-18.464844-36.449219-7.558594-7.246093-13.535156-12.976562-13.535156-24.894531 0-11.921875 5.976562-17.648438 13.527344-24.894531 8.242187-7.890625 18.472656-17.707031 18.472656-36.457031 0-18.746094-10.238281-28.550782-18.472656-36.433594-7.558594-7.238282-13.527344-12.960938-13.527344-24.871094h-16c0 18.742188 10.238281 28.550781 18.472656 36.433594 7.558594 7.238281 13.527344 12.957031 13.527344 24.871094 0 11.925781-5.976562 17.65625-13.535156 24.902343zm0 0"/><path d="m90.464844 219.550781c-8.234375 7.890625-18.464844 17.695313-18.464844 36.449219h16c0-11.921875 5.976562-17.648438 13.527344-24.894531 8.242187-7.890625 18.472656-17.707031 18.472656-36.449219 0-18.746094-10.230469-28.558594-18.464844-36.449219-7.558594-7.246093-13.535156-12.976562-13.535156-24.902343 0-11.914063 5.96875-17.632813 13.527344-24.871094 8.234375-7.882813 18.472656-17.691406 18.472656-36.433594h-16c0 11.910156-5.96875 17.632812-13.527344 24.871094-8.234375 7.882812-18.472656 17.6875-18.472656 36.433594 0 18.75 10.230469 28.566406 18.472656 36.457031 7.550782 7.238281 13.527344 12.964843 13.527344 24.894531 0 11.917969-5.976562 17.648438-13.535156 24.894531zm0 0"/><path d="m354.464844 163.550781c-8.234375 7.890625-18.464844 17.695313-18.464844 36.449219h16c0-11.921875 5.976562-17.648438 13.527344-24.894531 8.242187-7.890625 18.472656-17.707031 18.472656-36.449219 0-18.746094-10.230469-28.558594-18.464844-36.449219-7.558594-7.246093-13.535156-12.976562-13.535156-24.902343 0-11.914063 5.96875-17.632813 13.527344-24.871094 8.234375-7.882813 18.472656-17.691406 18.472656-36.433594h-16c0 11.910156-5.96875 17.632812-13.527344 24.871094-8.234375 7.882812-18.472656 17.6875-18.472656 36.433594 0 18.75 10.230469 28.566406 18.472656 36.457031 7.550782 7.238281 13.527344 12.964843 13.527344 24.894531 0 11.917969-5.976562 17.648438-13.535156 24.894531zm0 0"/></svg>