<?xml version="1.0" encoding="iso-8859-1"?>
<!-- Generator: Adobe Illustrator 19.0.0, SVG Export Plug-In . SVG Version: 6.00 Build 0)  -->
<svg version="1.1" id="Capa_1" xmlns="http://www.w3.org/2000/svg" xmlns:xlink="http://www.w3.org/1999/xlink" x="0px" y="0px"
	 viewBox="0 0 512 512" style="enable-background:new 0 0 512 512;" xml:space="preserve">
<g>
	<g>
		<path d="M435.998,26.205c-55.343-36.223-129.01-34.773-183.311,3.604c-48.231,34.087-74.436,89.256-70.095,147.577
			c2.036,27.35-9.387,55.625-31.336,77.575l-16.371,16.37l21.196,21.196l-53.619,53.476c-23.713-23.754-61.775-23.099-84.856-0.018
			c-23.445,23.445-23.448,61.394,0,84.841c12.656,12.657,29.608,18.463,46.207,17.426c-1.04,16.598,4.768,33.55,17.425,46.207
			c23.39,23.39,61.449,23.391,84.841,0c23.26-23.26,23.565-61.28,0.015-84.823l53.619-53.476l21.224,21.224l17.112-17.112
			c20.526-20.525,50.393-31.255,84.028-30.215c45.969,1.422,89.118-15.669,121.568-48.119
			C537.156,208.426,525.928,85.066,435.998,26.205z M117.934,415.301l18.404,9.389c20.219,10.315,22.274,34.812,8.531,48.556
			c-11.695,11.695-30.725,11.695-42.421,0c-11.695-11.695-11.695-30.725,0-42.42l-21.21-21.21
			c-11.696,11.695-30.726,11.696-42.421,0c-11.721-11.723-11.722-30.697,0.001-42.421c13.671-13.671,38.193-11.787,48.556,8.53
			l9.363,18.353l80.556-80.342l21.21,21.21L117.934,415.301z M442.435,260.727c-25.692,25.692-60.662,40.546-99.43,39.348
			c-39.87-1.231-75.814,11.155-101.972,34.984l-0.081-0.081c-12.691-12.691-38.536-38.536-63.755-63.755
			c25.023-27.424,37.837-62.078,35.308-96.063c-3.55-47.722,17.943-92.901,57.495-120.854
			c44.334-31.332,104.443-32.539,149.57-3.003C493.381,99.612,502.636,200.525,442.435,260.727z"/>
	</g>
</g>
<g>
	<g>
		<rect x="331.99" y="65.439" transform="matrix(0.7071 -0.7071 0.7071 0.7071 44.753 268.9171)" width="29.996" height="29.996"/>
	</g>
</g>
<g>
	<g>
		
			<rect x="268.362" y="86.644" transform="matrix(0.7071 -0.7071 0.7071 0.7071 11.1226 230.1356)" width="29.996" height="29.996"/>
	</g>
</g>
<g>
	<g>
		<rect x="310.784" y="129.067" transform="matrix(0.7071 -0.7071 0.7071 0.7071 -6.45 272.5588)" width="29.996" height="29.996"/>
	</g>
</g>
<g>
</g>
<g>
</g>
<g>
</g>
<g>
</g>
<g>
</g>
<g>
</g>
<g>
</g>
<g>
</g>
<g>
</g>
<g>
</g>
<g>
</g>
<g>
</g>
<g>
</g>
<g>
</g>
<g>
</g>
</svg>
