<?xml version="1.0" encoding="iso-8859-1"?>
<!-- Generator: Adobe Illustrator 19.0.0, SVG Export Plug-In . SVG Version: 6.00 Build 0)  -->
<svg version="1.1" id="Capa_1" xmlns="http://www.w3.org/2000/svg" xmlns:xlink="http://www.w3.org/1999/xlink" x="0px" y="0px"
	 viewBox="0 0 512 512" style="enable-background:new 0 0 512 512;" xml:space="preserve">
<g>
	<g>
		<path d="M143.92,221.236l-7.959-7.959c-2.929-2.93-7.678-2.93-10.606,0c-2.929,2.929-2.929,7.677,0,10.606
			c0,0,7.959,7.958,7.959,7.959c2.765,2.765,7.612,2.995,10.606,0C146.849,228.913,146.849,224.165,143.92,221.236z"/>
	</g>
</g>
<g>
	<g>
		<path d="M231.884,133.274l-7.96-7.959c-2.929-2.929-7.678-2.929-10.606,0c-2.929,2.929-2.929,7.678,0,10.606
			c0,0,7.955,7.955,7.96,7.96c2.832,2.832,7.704,2.903,10.606,0C234.813,140.952,234.813,136.203,231.884,133.274z"/>
	</g>
</g>
<g>
	<g>
		<path d="M203.401,168.699c-0.277-4.131-3.86-7.255-7.985-6.979c-4.133,0.278-7.258,3.854-6.98,7.986
			c0.327,4.868-1.589,9.764-5.257,13.431c-3.668,3.667-8.559,5.582-13.432,5.256c-4.125-0.275-7.708,2.847-7.985,6.98
			c-0.361,5.383,4.325,8.056,9.058,8.056c8.473,0,16.745-3.466,22.966-9.686C200.514,187.015,204.018,177.887,203.401,168.699z"/>
	</g>
</g>
<g>
	<g>
		<path d="M493.68,93.624c-24.261-34.437-73.729-70.868-130.372-76.008c-33.902-39.838-114.77-2.497-152.087,18.031
			c-6.418-2.743-13.51-3.884-20.727-3.171c-22.843,2.254-67.062,11.933-106.554,51.425c-39.492,39.493-49.171,83.712-51.426,106.554
			c-0.712,7.213,0.43,14.305,3.172,20.725c-20.528,37.316-57.87,118.186-18.03,152.088c5.14,56.643,41.57,106.11,76.008,130.372
			c17.127,12.066,39.672,22.64,61.012,16.62c35.148-9.913,35.051-34.956,34.939-63.953c-0.049-12.549-0.096-26.642,2.4-42.039
			c9.525-4.136,17.677-11.258,22.973-20.648c8.807-15.611,15.229-35.098,19.127-57.976c4.324-1.156,7.956-3.206,10.908-6.158
			l74.502-74.502c2.968-2.968,5.027-6.602,6.201-10.915c22.86-3.898,42.332-10.318,57.933-19.12
			c9.392-5.298,16.531-13.446,20.666-22.976c15.391-2.494,29.475-2.446,42.021-2.397c28.998,0.114,54.04,0.21,63.953-34.939
			C515.161,137.404,509.258,115.736,493.68,93.624z M174.616,446.364c0.118,30.331-0.761,42.9-24.011,49.459
			c-12.615,3.559-30.221-1.708-48.302-14.446c-29.085-20.491-59.734-60.535-68.082-107.221c0.345,0.188,0.704,0.368,1.053,0.555
			c31.474,16.851,67.779,24.392,102.777,29.669c10.488,1.582,21.227,3.315,31.82,3.885c0.562,0.03,6.377,0.258,6.418-0.072
			C174.521,422.228,174.571,434.907,174.616,446.364z M308.919,234.378c-0.001-0.001-74.36,74.358-74.502,74.5
			c-3.663,3.663-10.32,3.151-14.98,2.515c-13.218-1.806-25.961-7.669-37.832-13.517c-25.51-12.565-49.545-28.221-72.885-44.399
			c-3.271-2.267-8.159-1.393-10.437,1.892c-2.36,3.404-1.513,8.077,1.892,10.437c25.659,17.787,52.248,35.155,80.627,48.321
			c13.878,6.438,25.683,10.404,35.526,11.924c0.808,0.125,1.618,0.243,2.43,0.339c-3.636,19.74-9.285,36.482-16.831,49.859
			c-7.353,13.035-21.479,18.245-35.836,16.604c-45.56-4.887-98.759-11.586-136.801-39.483c-15.068-11.05-18.311-33.165-9.634-65.731
			c6.182-23.206,17.218-46.652,25.613-62.6c1.128,1.092,2.324,2.127,3.565,3.087c8.624,6.673,17.514,13.368,26.419,19.897
			c3.255,2.386,8.089,1.645,10.484-1.614c2.449-3.341,1.726-8.034-1.615-10.483c-5.848-4.288-11.677-8.645-17.43-13.016
			c-10.315-7.835-20.659-16.677-19.247-30.98c2.057-20.849,10.913-61.229,47.104-97.42c36.191-36.191,76.571-45.046,97.42-47.104
			c8.285-0.818,16.621,2.338,22.387,8.324c5.933,6.16,10.536,13.427,15.628,20.261c32.583,43.728,63.829,91.74,76.234,124.488
			c2.164,5.712,4.091,11.81,4.982,17.968C311.917,223.396,312.863,230.435,308.919,234.378z M376.288,201.884
			c-13.356,7.535-30.071,13.177-49.777,16.815c-1.478-12.664-7.364-28.86-17.734-48.965c-20.712-40.52-54.968-87.708-79.451-119.437
			c-1.349-1.75-2.711-3.483-4.25-5.072c15.948-8.395,39.395-19.431,62.6-25.613c32.565-8.676,54.68-5.435,65.731,9.634
			c27.573,37.597,34.637,91.627,39.483,136.802C394.437,180.445,389.347,194.518,376.288,201.884z M495.862,150.566
			c-6.557,23.249-19.123,24.133-49.459,24.01c-11.456-0.045-24.135-0.094-38.172,1.674c0.014-0.178,0.018-0.357,0.03-0.536
			c0.463-6.921-0.714-13.984-1.551-20.842c-1.246-10.207-2.739-20.385-4.516-30.513c-5.098-29.042-12.11-58.507-25.334-85.028
			c-0.861-1.73-1.743-3.453-2.667-5.15c46.688,8.347,86.732,38.998,107.222,68.083C494.154,120.346,499.419,137.952,495.862,150.566
			z"/>
	</g>
</g>
<g>
</g>
<g>
</g>
<g>
</g>
<g>
</g>
<g>
</g>
<g>
</g>
<g>
</g>
<g>
</g>
<g>
</g>
<g>
</g>
<g>
</g>
<g>
</g>
<g>
</g>
<g>
</g>
<g>
</g>
</svg>
